<svg id="visual" viewBox="0 0 1920 1080" width="1920" height="1080" xmlns="http://www.w3.org/2000/svg" xmlns:xlink="http://www.w3.org/1999/xlink" version="1.1"><path d="M0 656L45.7 653.5C91.3 651 182.7 646 274.2 666.3C365.7 686.7 457.3 732.3 548.8 745.3C640.3 758.3 731.7 738.7 823 714.8C914.3 691 1005.7 663 1097 658.2C1188.3 653.3 1279.7 671.7 1371.2 681.5C1462.7 691.3 1554.3 692.7 1645.8 697.5C1737.3 702.3 1828.7 710.7 1874.3 714.8L1920 719L1920 1081L1874.3 1081C1828.7 1081 1737.3 1081 1645.8 1081C1554.3 1081 1462.7 1081 1371.2 1081C1279.7 1081 1188.3 1081 1097 1081C1005.7 1081 914.3 1081 823 1081C731.7 1081 640.3 1081 548.8 1081C457.3 1081 365.7 1081 274.2 1081C182.7 1081 91.3 1081 45.7 1081L0 1081Z" fill="#edf0f7"></path><path d="M0 817L45.7 804.7C91.3 792.3 182.7 767.7 274.2 766.7C365.7 765.7 457.3 788.3 548.8 796.7C640.3 805 731.7 799 823 793.8C914.3 788.7 1005.7 784.3 1097 792.2C1188.3 800 1279.7 820 1371.2 823C1462.7 826 1554.3 812 1645.8 810.3C1737.3 808.7 1828.7 819.3 1874.3 824.7L1920 830L1920 1081L1874.3 1081C1828.7 1081 1737.3 1081 1645.8 1081C1554.3 1081 1462.7 1081 1371.2 1081C1279.7 1081 1188.3 1081 1097 1081C1005.7 1081 914.3 1081 823 1081C731.7 1081 640.3 1081 548.8 1081C457.3 1081 365.7 1081 274.2 1081C182.7 1081 91.3 1081 45.7 1081L0 1081Z" fill="#ded7e5"></path><path d="M0 787L45.7 804.5C91.3 822 182.7 857 274.2 872.8C365.7 888.7 457.3 885.3 548.8 883.2C640.3 881 731.7 880 823 877C914.3 874 1005.7 869 1097 873C1188.3 877 1279.7 890 1371.2 884C1462.7 878 1554.3 853 1645.8 846.2C1737.3 839.3 1828.7 850.7 1874.3 856.3L1920 862L1920 1081L1874.3 1081C1828.7 1081 1737.3 1081 1645.8 1081C1554.3 1081 1462.7 1081 1371.2 1081C1279.7 1081 1188.3 1081 1097 1081C1005.7 1081 914.3 1081 823 1081C731.7 1081 640.3 1081 548.8 1081C457.3 1081 365.7 1081 274.2 1081C182.7 1081 91.3 1081 45.7 1081L0 1081Z" fill="#d6bdca"></path><path d="M0 900L45.7 895C91.3 890 182.7 880 274.2 876.3C365.7 872.7 457.3 875.3 548.8 891C640.3 906.7 731.7 935.3 823 950C914.3 964.7 1005.7 965.3 1097 951C1188.3 936.7 1279.7 907.3 1371.2 898C1462.7 888.7 1554.3 899.3 1645.8 913.7C1737.3 928 1828.7 946 1874.3 955L1920 964L1920 1081L1874.3 1081C1828.7 1081 1737.3 1081 1645.8 1081C1554.3 1081 1462.7 1081 1371.2 1081C1279.7 1081 1188.3 1081 1097 1081C1005.7 1081 914.3 1081 823 1081C731.7 1081 640.3 1081 548.8 1081C457.3 1081 365.7 1081 274.2 1081C182.7 1081 91.3 1081 45.7 1081L0 1081Z" fill="#cca5a6"></path><path d="M0 954L45.7 955.3C91.3 956.7 182.7 959.3 274.2 962.8C365.7 966.3 457.3 970.7 548.8 970.7C640.3 970.7 731.7 966.3 823 973C914.3 979.7 1005.7 997.3 1097 995.5C1188.3 993.7 1279.7 972.3 1371.2 973.5C1462.7 974.7 1554.3 998.3 1645.8 999.7C1737.3 1001 1828.7 980 1874.3 969.5L1920 959L1920 1081L1874.3 1081C1828.7 1081 1737.3 1081 1645.8 1081C1554.3 1081 1462.7 1081 1371.2 1081C1279.7 1081 1188.3 1081 1097 1081C1005.7 1081 914.3 1081 823 1081C731.7 1081 640.3 1081 548.8 1081C457.3 1081 365.7 1081 274.2 1081C182.7 1081 91.3 1081 45.7 1081L0 1081Z" fill="#b6927f"></path></svg>