<svg id="visual" viewBox="0 0 1920 1080" width="1920" height="1080" xmlns="http://www.w3.org/2000/svg" xmlns:xlink="http://www.w3.org/1999/xlink" version="1.1"><path d="M0 744L45.7 727.2C91.3 710.3 182.7 676.7 274.2 682C365.7 687.3 457.3 731.7 548.8 740.5C640.3 749.3 731.7 722.7 823 715.2C914.3 707.7 1005.7 719.3 1097 730C1188.3 740.7 1279.7 750.3 1371.2 755.3C1462.7 760.3 1554.3 760.7 1645.8 759.5C1737.3 758.3 1828.7 755.7 1874.3 754.3L1920 753L1920 1081L1874.3 1081C1828.7 1081 1737.3 1081 1645.8 1081C1554.3 1081 1462.7 1081 1371.2 1081C1279.7 1081 1188.3 1081 1097 1081C1005.7 1081 914.3 1081 823 1081C731.7 1081 640.3 1081 548.8 1081C457.3 1081 365.7 1081 274.2 1081C182.7 1081 91.3 1081 45.7 1081L0 1081Z" fill="#afebd3"></path><path d="M0 738L45.7 748C91.3 758 182.7 778 274.2 774.5C365.7 771 457.3 744 548.8 740.3C640.3 736.7 731.7 756.3 823 780.2C914.3 804 1005.7 832 1097 833.3C1188.3 834.7 1279.7 809.3 1371.2 796C1462.7 782.7 1554.3 781.3 1645.8 782.5C1737.3 783.7 1828.7 787.3 1874.3 789.2L1920 791L1920 1081L1874.3 1081C1828.7 1081 1737.3 1081 1645.8 1081C1554.3 1081 1462.7 1081 1371.2 1081C1279.7 1081 1188.3 1081 1097 1081C1005.7 1081 914.3 1081 823 1081C731.7 1081 640.3 1081 548.8 1081C457.3 1081 365.7 1081 274.2 1081C182.7 1081 91.3 1081 45.7 1081L0 1081Z" fill="#69dadd"></path><path d="M0 881L45.7 886.3C91.3 891.7 182.7 902.3 274.2 892.7C365.7 883 457.3 853 548.8 837.5C640.3 822 731.7 821 823 823.8C914.3 826.7 1005.7 833.3 1097 846.5C1188.3 859.7 1279.7 879.3 1371.2 890.3C1462.7 901.3 1554.3 903.7 1645.8 886C1737.3 868.3 1828.7 830.7 1874.3 811.8L1920 793L1920 1081L1874.3 1081C1828.7 1081 1737.3 1081 1645.8 1081C1554.3 1081 1462.7 1081 1371.2 1081C1279.7 1081 1188.3 1081 1097 1081C1005.7 1081 914.3 1081 823 1081C731.7 1081 640.3 1081 548.8 1081C457.3 1081 365.7 1081 274.2 1081C182.7 1081 91.3 1081 45.7 1081L0 1081Z" fill="#00c4f1"></path><path d="M0 891L45.7 893.5C91.3 896 182.7 901 274.2 904.7C365.7 908.3 457.3 910.7 548.8 920.3C640.3 930 731.7 947 823 950C914.3 953 1005.7 942 1097 927.7C1188.3 913.3 1279.7 895.7 1371.2 899.3C1462.7 903 1554.3 928 1645.8 937.8C1737.3 947.7 1828.7 942.3 1874.3 939.7L1920 937L1920 1081L1874.3 1081C1828.7 1081 1737.3 1081 1645.8 1081C1554.3 1081 1462.7 1081 1371.2 1081C1279.7 1081 1188.3 1081 1097 1081C1005.7 1081 914.3 1081 823 1081C731.7 1081 640.3 1081 548.8 1081C457.3 1081 365.7 1081 274.2 1081C182.7 1081 91.3 1081 45.7 1081L0 1081Z" fill="#00a7ff"></path><path d="M0 976L45.7 982.7C91.3 989.3 182.7 1002.7 274.2 1011.2C365.7 1019.7 457.3 1023.3 548.8 1016C640.3 1008.7 731.7 990.3 823 987C914.3 983.7 1005.7 995.3 1097 996.2C1188.3 997 1279.7 987 1371.2 979.8C1462.7 972.7 1554.3 968.3 1645.8 969.3C1737.3 970.3 1828.7 976.7 1874.3 979.8L1920 983L1920 1081L1874.3 1081C1828.7 1081 1737.3 1081 1645.8 1081C1554.3 1081 1462.7 1081 1371.2 1081C1279.7 1081 1188.3 1081 1097 1081C1005.7 1081 914.3 1081 823 1081C731.7 1081 640.3 1081 548.8 1081C457.3 1081 365.7 1081 274.2 1081C182.7 1081 91.3 1081 45.7 1081L0 1081Z" fill="#3c80ff"></path></svg>